<?xml version="1.0" encoding="utf-8"?>
<!-- Generator: Adobe Illustrator 27.5.0, SVG Export Plug-In . SVG Version: 6.00 Build 0)  -->
<svg version="1.1" id="Layer_1" xmlns="http://www.w3.org/2000/svg" xmlns:xlink="http://www.w3.org/1999/xlink" x="0px" y="0px"
	 viewBox="0 0 4000 4000" style="enable-background:new 0 0 4000 4000;" xml:space="preserve">
<g>
	<g>
		<rect x="0.5" y="0.5" style="fill:#FFFFFF;" width="3999" height="3999"/>
		<path d="M3999,1v3998H1V1H3999 M4000,0H0v4000h4000V0L4000,0z"/>
	</g>
</g>
<g>
	<g>
		<defs>
			<path id="SVGID_1_" d="M1615.14,1575.204c0,0-375.756,237.976-421.261,627.575
				C1320.761,2041.577,1632.672,1844.515,1615.14,1575.204"/>
		</defs>
		<clipPath id="SVGID_00000048482940694999578460000015223417746716524428_">
			<use xlink:href="#SVGID_1_"  style="overflow:visible;"/>
		</clipPath>
		
			<linearGradient id="SVGID_00000113312324873932802850000011178648145453893527_" gradientUnits="userSpaceOnUse" x1="1412.3976" y1="1891.5638" x2="1238.2957" y2="2401.6218">
			<stop  offset="0" style="stop-color:#004B80"/>
			<stop  offset="1" style="stop-color:#29C4FF"/>
		</linearGradient>
		
			<rect x="1193.879" y="1575.204" style="clip-path:url(#SVGID_00000048482940694999578460000015223417746716524428_);fill:url(#SVGID_00000113312324873932802850000011178648145453893527_);" width="438.793" height="627.575"/>
	</g>
	<g>
		<defs>
			<path id="SVGID_00000180353711304645444440000000497720502334569139_" d="M1486.949,1616.576
				c0,0-405.485,182.775-505.322,562.106C1129.916,2036.923,1466.438,1885.676,1486.949,1616.576"/>
		</defs>
		<clipPath id="SVGID_00000080199853942810285070000004158331465717641397_">
			<use xlink:href="#SVGID_00000180353711304645444440000000497720502334569139_"  style="overflow:visible;"/>
		</clipPath>
		
			<linearGradient id="SVGID_00000146461100113805422030000004155786157333200039_" gradientUnits="userSpaceOnUse" x1="1227.8173" y1="1933.1003" x2="1155.9313" y2="2327.1387">
			<stop  offset="0" style="stop-color:#005998"/>
			<stop  offset="1" style="stop-color:#29C4FF"/>
		</linearGradient>
		
			<rect x="981.628" y="1616.576" style="clip-path:url(#SVGID_00000080199853942810285070000004158331465717641397_);fill:url(#SVGID_00000146461100113805422030000004155786157333200039_);" width="505.322" height="562.106"/>
	</g>
	<g>
		<defs>
			<path id="SVGID_00000035529741906681418320000002901408582866837947_" d="M1356.544,1680.142c0,0-430.89,110.265-594.519,466.754
				C932.498,2032.772,1290.028,1941.697,1356.544,1680.142"/>
		</defs>
		<clipPath id="SVGID_00000055692019371649432970000017600251478285603207_">
			<use xlink:href="#SVGID_00000035529741906681418320000002901408582866837947_"  style="overflow:visible;"/>
		</clipPath>
		
			<linearGradient id="SVGID_00000176025461477062921590000014746670587772201097_" gradientUnits="userSpaceOnUse" x1="1079.4093" y1="1838.0233" x2="953.7172" y2="2309.5381">
			<stop  offset="0" style="stop-color:#005998"/>
			<stop  offset="1" style="stop-color:#29C4FF"/>
		</linearGradient>
		
			<rect x="762.025" y="1680.142" style="clip-path:url(#SVGID_00000055692019371649432970000017600251478285603207_);fill:url(#SVGID_00000176025461477062921590000014746670587772201097_);" width="594.519" height="466.754"/>
	</g>
	<g>
		<defs>
			<path id="SVGID_00000039822138690176243680000009176330278470839709_" d="M1272.702,1665.563c0,0-510.181,46.618-761.439,422.115
				C725.993,1989.058,1149.238,1950.85,1272.702,1665.563"/>
		</defs>
		<clipPath id="SVGID_00000088101735534823749470000006807305004157873294_">
			<use xlink:href="#SVGID_00000039822138690176243680000009176330278470839709_"  style="overflow:visible;"/>
		</clipPath>
		
			<linearGradient id="SVGID_00000061463018054462254850000001218643516550366099_" gradientUnits="userSpaceOnUse" x1="961.5693" y1="1718.5353" x2="707.9495" y2="2294.6958">
			<stop  offset="0" style="stop-color:#005998"/>
			<stop  offset="1" style="stop-color:#29C4FF"/>
		</linearGradient>
		
			<rect x="511.262" y="1665.563" style="clip-path:url(#SVGID_00000088101735534823749470000006807305004157873294_);fill:url(#SVGID_00000061463018054462254850000001218643516550366099_);" width="761.439" height="422.115"/>
	</g>
	<g>
		<defs>
			<path id="SVGID_00000008131606538820657650000012369759606937149348_" d="M1176.816,1639.713c0,0-569.486-41.61-914.128,325.548
				C516.762,1895.908,989.122,1930.942,1176.816,1639.713"/>
		</defs>
		<clipPath id="SVGID_00000138564863420160364980000010841799925204049826_">
			<use xlink:href="#SVGID_00000008131606538820657650000012369759606937149348_"  style="overflow:visible;"/>
		</clipPath>
		
			<linearGradient id="SVGID_00000039826949625871696920000013080212486566771619_" gradientUnits="userSpaceOnUse" x1="820.4465" y1="1675.6877" x2="514.82" y2="1997.4021">
			<stop  offset="0" style="stop-color:#0067AF"/>
			<stop  offset="1" style="stop-color:#29C4FF"/>
		</linearGradient>
		
			<rect x="262.689" y="1598.103" style="clip-path:url(#SVGID_00000138564863420160364980000010841799925204049826_);fill:url(#SVGID_00000039826949625871696920000013080212486566771619_);" width="914.128" height="367.159"/>
	</g>
	<g>
		<defs>
			<path id="SVGID_00000115498342665117336560000003416520281416401590_" d="M1162.704,1580.329
				c0,0-552.153-145.505-958.371,152.105C466.822,1710.927,924.71,1832.129,1162.704,1580.329"/>
		</defs>
		<clipPath id="SVGID_00000040559269661735497950000008844744271759961730_">
			<use xlink:href="#SVGID_00000115498342665117336560000003416520281416401590_"  style="overflow:visible;"/>
		</clipPath>
		
			<linearGradient id="SVGID_00000109021658578441860910000010845963978348004013_" gradientUnits="userSpaceOnUse" x1="864.98" y1="1498.7865" x2="448.0488" y2="1808.2531">
			<stop  offset="0" style="stop-color:#0067AF"/>
			<stop  offset="1" style="stop-color:#29C4FF"/>
		</linearGradient>
		
			<rect x="204.333" y="1434.823" style="clip-path:url(#SVGID_00000040559269661735497950000008844744271759961730_);fill:url(#SVGID_00000109021658578441860910000010845963978348004013_);" width="958.371" height="397.306"/>
	</g>
	<g>
		<defs>
			<path id="SVGID_00000163047882808894902090000017276217506496874923_" d="M1449.154,1951.025c0,0-329.997,269.29-230.581,762.951
				C1309.333,2466.738,1577.672,2272.781,1449.154,1951.025"/>
		</defs>
		<clipPath id="SVGID_00000045612944100276494830000016328203454851213491_">
			<use xlink:href="#SVGID_00000163047882808894902090000017276217506496874923_"  style="overflow:visible;"/>
		</clipPath>
		
			<linearGradient id="SVGID_00000098215652106079484580000005510294833154223025_" gradientUnits="userSpaceOnUse" x1="1339.7142" y1="2326.717" x2="1723.2545" y2="2581.6484">
			<stop  offset="0" style="stop-color:#005EA0"/>
			<stop  offset="1" style="stop-color:#29C4FF"/>
		</linearGradient>
		
			<rect x="1119.157" y="1951.025" style="clip-path:url(#SVGID_00000045612944100276494830000016328203454851213491_);fill:url(#SVGID_00000098215652106079484580000005510294833154223025_);" width="458.515" height="762.951"/>
	</g>
	<g>
		<defs>
			<path id="SVGID_00000080906621085093274600000000610198007492251037_" d="M1449.154,1951.025c0,0-226.196,360.902,26.3,796.599
				C1482.123,2484.338,1674.079,2214.563,1449.154,1951.025"/>
		</defs>
		<clipPath id="SVGID_00000156581296467714996940000002074370392708286141_">
			<use xlink:href="#SVGID_00000080906621085093274600000000610198007492251037_"  style="overflow:visible;"/>
		</clipPath>
		
			<linearGradient id="SVGID_00000116933383266687848870000013862849994765702305_" gradientUnits="userSpaceOnUse" x1="1331.9515" y1="2235.0806" x2="1805.022" y2="2698.7207">
			<stop  offset="0" style="stop-color:#0062A7"/>
			<stop  offset="1" style="stop-color:#29C4FF"/>
		</linearGradient>
		
			<rect x="1222.958" y="1951.025" style="clip-path:url(#SVGID_00000156581296467714996940000002074370392708286141_);fill:url(#SVGID_00000116933383266687848870000013862849994765702305_);" width="451.121" height="796.599"/>
	</g>
	<g>
		<defs>
			<path id="SVGID_00000018228381063213408230000011410245796920462517_" d="M1449.154,1951.025c0,0-98.494,414.383,280.401,746.08
				C1651.43,2445.591,1746.721,2128.502,1449.154,1951.025"/>
		</defs>
		<clipPath id="SVGID_00000031916585913944197690000005430057123039517358_">
			<use xlink:href="#SVGID_00000018228381063213408230000011410245796920462517_"  style="overflow:visible;"/>
		</clipPath>
		
			<linearGradient id="SVGID_00000137815171735063616910000008627178261834296470_" gradientUnits="userSpaceOnUse" x1="1332.3358" y1="2198.218" x2="1775.1248" y2="2455.7742">
			<stop  offset="0" style="stop-color:#0067AF"/>
			<stop  offset="1" style="stop-color:#29C4FF"/>
		</linearGradient>
		
			<rect x="1350.66" y="1951.025" style="clip-path:url(#SVGID_00000031916585913944197690000005430057123039517358_);fill:url(#SVGID_00000137815171735063616910000008627178261834296470_);" width="396.061" height="746.08"/>
	</g>
	<g>
		<defs>
			<path id="SVGID_00000114064417683611000020000004192842506544054402_" d="M1624.529,1523.086
				c-59.272,89.858-96.184,166.579-120.148,242.303c-19.382,61.245-30.294,121.838-37.714,188.201
				c-4.516,40.392-7.74,82.921-10.794,129.035c-2.513,37.957-4.91,78.343-7.819,121.966
				c331.274-29.906,512.242-419.763,539.514-621.168c0,0,39.369-134.15,169.144-125.401c0,0-34.996-48.119-129.774-43.744
				c0,0-123.943-195.392-357.245,43.744C1653.346,1480.525,1638.332,1502.162,1624.529,1523.086"/>
		</defs>
		<clipPath id="SVGID_00000056401838497049566470000001835664019566027698_">
			<use xlink:href="#SVGID_00000114064417683611000020000004192842506544054402_"  style="overflow:visible;"/>
		</clipPath>
		
			<linearGradient id="SVGID_00000047040024636855447470000010190044889019470224_" gradientUnits="userSpaceOnUse" x1="1798.8376" y1="1735.7007" x2="1881.6603" y2="1176.017">
			<stop  offset="0" style="stop-color:#0067AF"/>
			<stop  offset="1" style="stop-color:#29C4FF"/>
		</linearGradient>
		
			<rect x="1448.055" y="1218.886" style="clip-path:url(#SVGID_00000056401838497049566470000001835664019566027698_);fill:url(#SVGID_00000047040024636855447470000010190044889019470224_);" width="708.658" height="985.705"/>
	</g>
	<g>
		<defs>
			<path id="SVGID_00000000192128166871812130000008599202723005368248_" d="M1728.355,2069.601
				c9.013-56.819,53.637-428.596-103.826-546.515c-290.277-217.375-1033.978,27.627-1213.218-261.915
				c196.133,839.009,913.449-29.979,1036.743,943.42c0.966-0.086,1.929-0.178,2.892-0.27c30.716-2.976,60.134-9.048,88.249-17.776
				c27.352-8.491,53.471-19.497,78.354-32.61c39.606-20.873,79.947-43.28,109.428-77.008
				C1727.757,2076.035,1728.201,2073.404,1728.355,2069.601"/>
		</defs>
		<clipPath id="SVGID_00000107569987822291742210000002342569222293707191_">
			<use xlink:href="#SVGID_00000000192128166871812130000008599202723005368248_"  style="overflow:visible;"/>
		</clipPath>
		
			<linearGradient id="SVGID_00000160170839998622799270000006979040239215046049_" gradientUnits="userSpaceOnUse" x1="1731.0814" y1="2244.8486" x2="663.7203" y2="1358.2992">
			<stop  offset="0" style="stop-color:#0067AF"/>
			<stop  offset="1" style="stop-color:#29C4FF"/>
		</linearGradient>
		
			<rect x="411.312" y="1231.193" style="clip-path:url(#SVGID_00000107569987822291742210000002342569222293707191_);fill:url(#SVGID_00000160170839998622799270000006979040239215046049_);" width="1370.68" height="973.398"/>
	</g>
</g>
</svg>
