<?xml version="1.0" encoding="utf-8"?>
<!-- Generator: Adobe Illustrator 27.5.0, SVG Export Plug-In . SVG Version: 6.00 Build 0)  -->
<svg version="1.1" id="Layer_1" xmlns="http://www.w3.org/2000/svg" xmlns:xlink="http://www.w3.org/1999/xlink" x="0px" y="0px"
	 viewBox="-10.919 -16.061 46.876 33.082" style="enable-background:new -10.919 -16.061 46.876 33.082;" xml:space="preserve">
<g>
	<path style="fill:#43AFFF;" d="M6.467,4.229c-0.003,0.673,5.843-3.067,5.898-2.456c0.018,0.184,0.058,0.41,0.111,0.669
		c0.058,0.263,0.137,0.528,0.233,0.798c0.102,0.273,0.221,0.529,0.353,0.777c0.137,0.245,0.291,0.449,0.471,0.611
		c0.177,0.162,0.374,0.266,0.587,0.31c0.212,0.046,0.442-0.004,0.694-0.138c0.067-0.035,0.129-0.042,0.18-0.031
		c0.054,0.007,0.09,0.031,0.115,0.067c0.025,0.036,0.032,0.08,0.021,0.13c-0.008,0.051-0.043,0.101-0.097,0.145
		c-0.339,0.255-0.702,0.416-1.099,0.484c-0.395,0.065-0.773,0.043-1.14-0.068c-0.367-0.11-0.698-0.309-0.993-0.589
		c-0.295-0.28-0.508-0.644-0.655-1.083c-0.159-0.475-6.114,3.306-6.175,2.564C4.919,5.783,4.904,5.118,4.912,4.424
		c0.007-0.694,0.025-1.396,0.058-2.108c-0.32,0.025-0.644,0.047-0.968,0.062c-0.569,0.024-0.73,0.154-0.86,0.63
		C3.005,3.507,2.861,3.982,2.706,4.431c-0.184,0.522-0.363,0.938-0.54,1.251C2.008,5.98,1.828,6.207,1.623,6.366
		C1.422,6.524,1.22,6.617,1.019,6.642C0.817,6.672,0.626,6.632,0.45,6.524C0.27,6.419,0.122,6.25,0.011,6.017
		c-0.018-0.04-0.025-0.08-0.018-0.119c0.003-0.04,0.018-0.068,0.036-0.091c0.018-0.021,0.043-0.031,0.068-0.031
		c0.029,0,0.058,0.018,0.083,0.05C0.274,5.96,0.378,6.028,0.493,6.028c0.112-0.004,0.23-0.048,0.349-0.141
		C0.961,5.797,1.08,5.675,1.195,5.516c0.119-0.154,0.227-0.323,0.331-0.504C1.631,4.834,1.72,4.653,1.803,4.474
		c0.079-0.181,0.144-0.334,0.19-0.468c0.152-0.429,0.295-0.886,0.429-1.37c0.438-1.561,0.705-4.189,1.716-5.43
		c0.288-0.359,0.626-0.608,1.015-0.745c0.306-0.108,0.569-0.079,0.788,0.082c0.18,0.141,0.317,0.364,0.414,0.669
		C6.452-2.478,6.513-2.053,6.546-1.51c0.025,0.457,0.033,0.96,0.022,1.507C6.502,2.992,6.485,0.741,6.467,4.229L6.467,4.229z
		 M4.055,1.907c0.313-0.015,0.626-0.033,0.939-0.058c0.018-0.583,0.033-1.14,0.043-1.665C5.049-0.345,5.042-0.82,5.013-1.244
		c-0.011-0.19-0.025-0.371-0.036-0.543c-0.014-0.173-0.029-0.32-0.05-0.446c-0.022-0.125-0.051-0.226-0.09-0.302
		C4.8-2.607,4.746-2.643,4.675-2.632C4.567-2.625,4.458-2.546,4.358-2.395C3.815-1.585,3.476,0.083,3.285,1.04
		C3.059,2.162,2.958,1.953,4.055,1.907L4.055,1.907z"/>
</g>
<g>
	<path style="fill:#43AFFF;" d="M8.984,0.701H8.311L8.172,1.149H7.737l0.7-2.075h0.426l0.697,2.075H9.125L8.984,0.701z M8.414,0.375
		h0.469L8.653-0.356H8.644L8.414,0.375z"/>
	<path style="fill:#43AFFF;" d="M9.759,1.149v-2.075h0.724c0.254,0,0.463,0.081,0.627,0.243c0.165,0.162,0.247,0.37,0.247,0.624
		v0.343c0,0.255-0.083,0.463-0.247,0.624c-0.163,0.161-0.373,0.241-0.627,0.241H9.759z M10.175-0.605V0.83h0.308
		c0.137,0,0.248-0.051,0.331-0.153c0.083-0.102,0.125-0.233,0.125-0.393v-0.346c0-0.159-0.042-0.289-0.125-0.39
		c-0.083-0.102-0.194-0.153-0.331-0.153H10.175z"/>
	<path style="fill:#43AFFF;" d="M12.365,0.587L12.391,0.7H12.4l0.024-0.11l0.451-1.516h0.44l-0.706,2.075h-0.427l-0.704-2.075h0.439
		L12.365,0.587z"/>
	<path style="fill:#43AFFF;" d="M14.49,0.701h-0.673l-0.14,0.448h-0.435l0.699-2.075h0.426l0.698,2.075h-0.436L14.49,0.701z
		 M13.92,0.375h0.469l-0.229-0.731h-0.009L13.92,0.375z"/>
	<path style="fill:#43AFFF;" d="M16.944,1.149h-0.417L15.69-0.25l-0.008,0.001v1.398h-0.416v-2.075h0.416l0.837,1.398l0.008-0.002
		v-1.396h0.417V1.149z"/>
	<path style="fill:#43AFFF;" d="M18.881,0.462l0.004,0.009c0.003,0.222-0.064,0.395-0.202,0.52c-0.14,0.126-0.331,0.188-0.575,0.188
		c-0.248,0-0.449-0.08-0.603-0.24c-0.152-0.16-0.229-0.367-0.229-0.62v-0.412c0-0.252,0.074-0.46,0.224-0.621
		c0.149-0.161,0.345-0.242,0.587-0.242c0.253,0,0.451,0.062,0.593,0.186c0.142,0.124,0.213,0.297,0.208,0.521L18.885-0.24H18.48
		c0-0.133-0.031-0.232-0.096-0.297c-0.064-0.065-0.164-0.098-0.298-0.098c-0.124,0-0.221,0.05-0.291,0.15
		c-0.07,0.1-0.104,0.229-0.104,0.388v0.415c0,0.159,0.036,0.29,0.109,0.391c0.074,0.101,0.177,0.15,0.308,0.15
		c0.124,0,0.218-0.032,0.279-0.097c0.061-0.065,0.092-0.165,0.092-0.3H18.881z"/>
	<path style="fill:#43AFFF;" d="M20.368,0.238h-0.77V0.83h0.915v0.319h-1.331v-2.075h1.328v0.32h-0.912v0.521h0.77V0.238z"/>
	<path style="fill:#43AFFF;" d="M20.806,1.149v-2.075h0.724c0.254,0,0.462,0.081,0.627,0.243c0.164,0.162,0.246,0.37,0.246,0.624
		v0.343c0,0.255-0.082,0.463-0.246,0.624c-0.165,0.161-0.373,0.241-0.627,0.241H20.806z M21.222-0.605V0.83h0.308
		c0.137,0,0.247-0.051,0.33-0.153c0.084-0.102,0.126-0.233,0.126-0.393v-0.346c0-0.159-0.042-0.289-0.126-0.39
		c-0.083-0.102-0.193-0.153-0.33-0.153H21.222z"/>
</g>
</svg>
